<svg width="20" height="18" viewBox="0 0 20 18" fill="none" xmlns="http://www.w3.org/2000/svg">
<path fill-rule="evenodd" clip-rule="evenodd" d="M1 0C0.447715 0 0 0.447715 0 1C0 1.55228 0.447715 2 1 2H19C19.5523 2 20 1.55228 20 1C20 0.447715 19.5523 0 19 0H1ZM1 8C0.447715 8 0 8.44771 0 9C0 9.55228 0.447715 10 1 10H19C19.5523 10 20 9.55228 20 9C20 8.44771 19.5523 8 19 8H1ZM0 17C0 16.4477 0.447715 16 1 16H19C19.5523 16 20 16.4477 20 17C20 17.5523 19.5523 18 19 18H1C0.447715 18 0 17.5523 0 17Z" fill="black"/>
<mask id="mask0_6_1479" style="mask-type:alpha" maskUnits="userSpaceOnUse" x="0" y="0" width="20" height="18">
<path fill-rule="evenodd" clip-rule="evenodd" d="M1 0C0.447715 0 0 0.447715 0 1C0 1.55228 0.447715 2 1 2H19C19.5523 2 20 1.55228 20 1C20 0.447715 19.5523 0 19 0H1ZM1 8C0.447715 8 0 8.44771 0 9C0 9.55228 0.447715 10 1 10H19C19.5523 10 20 9.55228 20 9C20 8.44771 19.5523 8 19 8H1ZM0 17C0 16.4477 0.447715 16 1 16H19C19.5523 16 20 16.4477 20 17C20 17.5523 19.5523 18 19 18H1C0.447715 18 0 17.5523 0 17Z" fill="white"/>
</mask>
<g mask="url(#mask0_6_1479)">
<rect x="-10" y="-11" width="50" height="50" fill="black"/>
</g>
</svg>
